name D:\school\WTK\thesis\model\3dpredictsim\Results\MidTarsalJoint\Fal_s1_bCst_PF_Gefen2002_ls150_MT_nl_Gefen2002_MTP_T5_ig23.mot
datacolumns 128
datarows 4
range 1.25742520 1.29514796
endheader
time	pelvis_tilt	pelvis_list	pelvis_rotation	pelvis_tx	pelvis_ty	pelvis_tz	hip_flexion_l	hip_adduction_l	hip_rotation_l	hip_flexion_r	hip_adduction_r	hip_rotation_r	knee_angle_l	knee_angle_r	ankle_angle_l	ankle_angle_r	subtalar_angle_l	subtalar_angle_r	mtj_angle_l	mtj_angle_r	mtp_angle_l	mtp_angle_r	lumbar_extension	lumbar_bending	lumbar_rotation	arm_flex_l	arm_add_l	arm_rot_l	arm_flex_r	arm_add_r	arm_rot_r	elbow_flex_l	elbow_flex_r	pro_sup_l	pro_sup_r	glut_med1_l/activation	glut_med2_l/activation	glut_med3_l/activation	glut_min1_l/activation	glut_min2_l/activation	glut_min3_l/activation	semimem_l/activation	semiten_l/activation	bifemlh_l/activation	bifemsh_l/activation	sar_l/activation	add_long_l/activation	add_brev_l/activation	add_mag1_l/activation	add_mag2_l/activation	add_mag3_l/activation	tfl_l/activation	pect_l/activation	grac_l/activation	glut_max1_l/activation	glut_max2_l/activation	glut_max3_l/activation	iliacus_l/activation	psoas_l/activation	quad_fem_l/activation	gem_l/activation	peri_l/activation	rect_fem_l/activation	vas_med_l/activation	vas_int_l/activation	vas_lat_l/activation	med_gas_l/activation	lat_gas_l/activation	soleus_l/activation	tib_post_l/activation	flex_dig_l/activation	flex_hal_l/activation	tib_ant_l/activation	per_brev_l/activation	per_long_l/activation	per_tert_l/activation	ext_dig_l/activation	ext_hal_l/activation	ercspn_l/activation	intobl_l/activation	extobl_l/activation	glut_med1_r/activation	glut_med2_r/activation	glut_med3_r/activation	glut_min1_r/activation	glut_min2_r/activation	glut_min3_r/activation	semimem_r/activation	semiten_r/activation	bifemlh_r/activation	bifemsh_r/activation	sar_r/activation	add_long_r/activation	add_brev_r/activation	add_mag1_r/activation	add_mag2_r/activation	add_mag3_r/activation	tfl_r/activation	pect_r/activation	grac_r/activation	glut_max1_r/activation	glut_max2_r/activation	glut_max3_r/activation	iliacus_r/activation	psoas_r/activation	quad_fem_r/activation	gem_r/activation	peri_r/activation	rect_fem_r/activation	vas_med_r/activation	vas_int_r/activation	vas_lat_r/activation	med_gas_r/activation	lat_gas_r/activation	soleus_r/activation	tib_post_r/activation	flex_dig_r/activation	flex_hal_r/activation	tib_ant_r/activation	per_brev_r/activation	per_long_r/activation	per_tert_r/activation	ext_dig_r/activation	ext_hal_r/activation	ercspn_r/activation	intobl_r/activation	extobl_r/activation	
          1.25742520	         -2.93013758	         -3.08832669	          7.57869809	          1.57178150	          0.91063648	         -0.00305362	        -14.86041560	         -2.92816711	          8.02434635	         30.63888078	          4.11548872	         -1.80341151	        -16.25260126	        -11.31273338	        -14.67807891	          5.00497800	         16.98792486	         -6.65225468	         18.07151072	          1.21218500	         15.61413854	         -0.44111765	         -1.45519367	          1.46061077	         -2.94214318	          5.44492402	        -13.49671150	         18.19403511	         -8.68118661	        -13.60130421	          9.43506829	         46.06405049	         13.61684317	         86.51662706	         86.51662706	          0.14194664	          0.07866851	          0.06048001	          0.18980019	          0.15028155	          0.08848564	          0.05000134	          0.05000053	          0.05000060	          0.05000018	          0.08848676	          0.12978878	          0.05000089	          0.06047841	          0.06046283	          0.06047801	          0.22066810	          0.05741720	          0.06047352	          0.05006141	          0.05004719	          0.05130531	          0.37540222	          0.51129810	          0.07190505	          0.06047982	          0.05000496	          0.35397258	          0.16849652	          0.16086916	          0.11819164	          0.20252249	          0.28313897	          0.32941381	          0.22199294	          0.14419705	          0.19044891	          0.06233116	          0.05000029	          0.13935535	          0.05000010	          0.07641822	          0.05000057	          0.05000049	          0.06549255	          0.08590897	          0.05000000	          0.05000002	          0.08119624	          0.05000003	          0.05000003	          0.05000004	          0.17000411	          0.10129273	          0.12153374	          0.06801265	          0.06047889	          0.10226291	          0.21292315	          0.27666622	          0.20972489	          0.11641526	          0.05000010	          0.07315933	          0.14763760	          0.06896893	          0.15810019	          0.15406153	          0.05000018	          0.05000034	          0.53849698	          0.24227504	          0.14839023	          0.05000032	          0.05963382	          0.05806574	          0.05746937	          0.07135350	          0.07156806	          0.06370621	          0.06047856	          0.05000204	          0.05860820	          0.49132325	          0.26700734	          0.22672080	          0.06932703	          0.47639936	          0.21021309	          0.05000000	          0.09476660	          0.08848403	
          1.26999945	         -2.92632215	         -3.18151716	          7.81104507	          1.59220973	          0.90891995	         -0.00280929	        -15.02433332	         -3.30820134	          7.72668616	         29.69780132	          4.45295689	         -1.55385105	        -17.76544403	        -11.88231451	        -14.97570994	          4.46488995	         17.78743587	         -6.99883471	         15.22140550	          0.84773638	         18.20462033	         -0.39962357	         -1.15154210	          1.66467203	         -3.05064436	          4.82644733	        -13.53749443	         18.32936457	         -9.92039892	        -13.58820217	          9.42196064	         47.48786402	         13.29541063	         86.51662706	         86.51662706	          0.35001819	          0.06503842	          0.05000163	          0.42176309	          0.12424383	          0.07315461	          0.05000093	          0.05000009	          0.05000008	          0.05000046	          0.07315576	          0.10730156	          0.05000021	          0.05000016	          0.05000021	          0.05000012	          0.18243517	          0.07315443	          0.05000078	          0.05000107	          0.05000055	          0.05000019	          0.31036008	          0.48305591	          0.05944680	          0.05000182	          0.06047644	          0.29264313	          0.13930339	          0.13299773	          0.12945708	          0.16743334	          0.23408218	          0.27233941	          0.18353034	          0.11921343	          0.15745166	          0.10595757	          0.18371095	          0.15026419	          0.08189812	          0.15297386	          0.05000094	          0.06037611	          0.05414528	          0.07102434	          0.26656692	          0.30459957	          0.34503449	          0.40674647	          0.28837379	          0.24773281	          0.14054913	          0.08574782	          0.10047680	          0.07315376	          0.05000061	          0.08454482	          0.17603201	          0.22873096	          0.17338817	          0.13851894	          0.05000019	          0.06048401	          0.12205797	          0.19752421	          0.18218702	          0.12736910	          0.05000021	          0.05000012	          0.44519675	          0.20029842	          0.27306606	          0.05000003	          0.05000012	          0.05000013	          0.05000010	          0.05899077	          0.05916817	          0.05266845	          0.05000006	          0.05000014	          0.05000017	          0.57592950	          0.37456435	          0.18743934	          0.43645886	          0.55361990	          0.28215851	          0.06113712	          0.11101559	          0.07315325	
          1.28257371	         -2.92002756	         -3.26600906	          7.99452556	          1.61260971	          0.90724909	         -0.00252774	        -15.14445973	         -3.66825577	          7.44635286	         28.82193754	          4.75951323	         -1.31480804	        -19.29146620	        -12.48238747	        -15.15015277	          3.58835160	         18.41685409	         -7.34531119	         11.85784329	          0.72205956	         20.85494163	         -0.38336683	         -0.86964985	          1.86886724	         -3.14645795	          4.18126207	        -13.58330615	         18.41190105	        -11.09007489	        -13.57661011	          9.47969356	         48.82109894	         12.96463887	         86.51662706	         86.51662706	          0.33264434	          0.05376986	          0.05000004	          0.34868847	          0.10271733	          0.06047983	          0.05000059	          0.05000005	          0.05000006	          0.05000003	          0.06048083	          0.08904204	          0.08807886	          0.06047528	          0.05033212	          0.10611260	          0.15082640	          0.06048044	          0.05000018	          0.05000143	          0.05000105	          0.05000073	          0.25658697	          0.41161213	          0.05000008	          0.05000036	          0.05000005	          0.24193964	          0.11981655	          0.10996657	          0.10702770	          0.13842376	          0.19352499	          0.22515374	          0.15173179	          0.09855849	          0.13017154	          0.14762179	          0.16168563	          0.14220468	          0.25387650	          0.18660641	          0.15197550	          0.08917212	          0.05000001	          0.05871863	          0.36881299	          0.42629786	          0.46506431	          0.33627349	          0.23841071	          0.30334461	          0.11619752	          0.08187255	          0.08306819	          0.06047922	          0.05000024	          0.06989657	          0.14553264	          0.18910104	          0.14339628	          0.15681608	          0.05000018	          0.05000488	          0.10091026	          0.27651922	          0.22486938	          0.16602826	          0.05000003	          0.05000004	          0.36806178	          0.16559468	          0.22575587	          0.05000004	          0.14134243	          0.14745871	          0.12390320	          0.05000000	          0.05000001	          0.05000000	          0.05000001	          0.05000006	          0.05000004	          0.65823041	          0.32610432	          0.17282575	          0.63644887	          0.62940101	          0.36506088	          0.08346954	          0.09178098	          0.06047868	
          1.29514796	         -2.91226460	         -3.35643217	          8.13613757	          1.63268672	          0.90587501	         -0.00220121	        -15.13892087	         -4.00922637	          7.16520730	         28.12325977	          5.09162021	         -1.07400826	        -20.91286415	        -13.33878712	        -15.29066209	          2.70108737	         18.83852910	         -7.70844371	          8.09955156	          0.69820261	         23.34088532	         -0.37772030	         -0.62687204	          2.09073976	         -3.23309001	          3.57731483	        -13.61893530	         18.48628971	        -12.13590020	        -13.56220870	          9.57623233	         49.97207023	         12.60811349	         86.51662706	         86.51662706	          0.34823148	          0.05000004	          0.05000002	          0.28827644	          0.08492054	          0.05000111	          0.05000106	          0.05000012	          0.05000011	          0.05000006	          0.05000203	          0.07361467	          0.19328789	          0.05000030	          0.05000097	          0.14313875	          0.12469417	          0.05000251	          0.05000015	          0.05000065	          0.05000039	          0.05000016	          0.21213060	          0.37600427	          0.05000002	          0.05000016	          0.05000005	          0.20002106	          0.09905709	          0.09091371	          0.08848403	          0.11444039	          0.15999477	          0.18614349	          0.12544268	          0.08148224	          0.10761798	          0.19073340	          0.13368921	          0.12958964	          0.41249854	          0.21342379	          0.12567299	          0.12227995	          0.05000001	          0.05000001	          0.47711716	          0.54014760	          0.58075439	          0.27801102	          0.33703982	          0.41303520	          0.09606510	          0.07060545	          0.06867584	          0.05000067	          0.05000018	          0.05778633	          0.12031762	          0.15633765	          0.16519926	          0.17618502	          0.05000025	          0.05000126	          0.08342663	          0.33398286	          0.26449789	          0.19549903	          0.05000004	          0.05000004	          0.30429125	          0.13690373	          0.23308396	          0.05000005	          0.27492526	          0.27556783	          0.23679728	          0.05000002	          0.05000006	          0.05000000	          0.14734472	          0.08847960	          0.05226593	          0.76979364	          0.26960333	          0.14288188	          0.52617745	          0.52202116	          0.38992464	          0.09705859	          0.07587897	          0.05000013	
